<?xml version="1.0" encoding="utf-8"?>
<!-- Generator: Adobe Illustrator 25.0.1, SVG Export Plug-In . SVG Version: 6.00 Build 0)  -->
<svg version="1.1" id="Слой_1" xmlns="http://www.w3.org/2000/svg" x="0px" y="0px"
	 viewBox="0 0 167 102.8" style="enable-background:new 0 0 167 102.8;" xml:space="preserve">
<style type="text/css">
	.st0{fill-rule:evenodd;clip-rule:evenodd;fill:rgba(26,92,255,0.1);}
	.st1{fill-rule:evenodd;clip-rule:evenodd;fill:rgba(255, 255, 255, 0.6);}
	.st2{fill-rule:evenodd;clip-rule:evenodd;fill:rgba(255, 255, 255, 0.5);}
	.st3{fill-rule:evenodd;clip-rule:evenodd;fill:#E8F0FE;}
	.st4{fill:#FFFFFF;stroke:#1F64E7;stroke-width:2.5;}
	.st5{fill:none;stroke:#1F64E7;stroke-width:2.5;stroke-linecap:round;stroke-linejoin:round;}
	.st6{fill:none;stroke:#75A4FE;stroke-width:2.5;stroke-linecap:round;stroke-linejoin:round;}
</style>
<path class="st0" d="M160,16.2c3.9,0,7,3.1,7,7s-3.1,7-7,7h-40c3.9,0,7,3.1,7,7s-3.1,7-7,7h22c3.9,0,7,3.1,7,7s-3.1,7-7,7h-10.2
	c-4.9,0-8.8,3.1-8.8,7c0,2.6,2,4.9,6,7c3.9,0,7,3.1,7,7s-3.1,7-7,7H46c-3.9,0-7-3.1-7-7s3.1-7,7-7H7c-3.9,0-7-3.1-7-7s3.1-7,7-7h40
	c3.9,0,7-3.1,7-7s-3.1-7-7-7H22c-3.9,0-7-3.1-7-7s3.1-7,7-7h40c-3.9,0-7-3.1-7-7s3.1-7,7-7H160z M160,44.2c3.9,0,7,3.1,7,7
	s-3.1,7-7,7s-7-3.1-7-7S156.1,44.2,160,44.2z"/>
<path class="st1" d="M106.7,15.2l9.3,67.8l0.8,6.8c0.3,2.2-1.3,4.2-3.5,4.5l-58.6,7.2c-2.2,0.3-4.2-1.3-4.5-3.5l-9-73.4
	c-0.1-1.1,0.6-2.1,1.7-2.2c0,0,0,0,0,0l4.9-0.5 M51.8,21.4l4.6-0.5L51.8,21.4z"/>
<path class="st2" d="M107.9,15.1c-0.1-0.7-0.7-1.2-1.4-1.1s-1.2,0.7-1.1,1.4L107.9,15.1z M116,83.1l1.2-0.2c0,0,0,0,0,0L116,83.1z
	 M116.8,89.9l1.2-0.2L116.8,89.9z M113.3,94.3l0.2,1.2L113.3,94.3z M54.8,101.5l0.2,1.2L54.8,101.5z M50.3,98.1l1.2-0.2L50.3,98.1z
	 M43.1,22.4l0.1,1.2L43.1,22.4z M48.1,23.1c0.7-0.1,1.2-0.7,1.1-1.4c-0.1-0.7-0.7-1.2-1.4-1.1L48.1,23.1z M51.7,20.2
	c-0.7,0.1-1.2,0.7-1.1,1.4c0.1,0.7,0.7,1.2,1.4,1.1L51.7,20.2z M56.6,22.1c0.7-0.1,1.2-0.7,1.1-1.4c-0.1-0.7-0.7-1.2-1.4-1.1
	L56.6,22.1z M105.4,15.4l9.3,67.8l2.5-0.3l-9.3-67.8L105.4,15.4z M114.7,83.2l0.8,6.8l2.5-0.3l-0.8-6.8L114.7,83.2z M115.6,90
	c0.2,1.5-0.9,2.9-2.4,3.1l0.3,2.5c2.9-0.4,4.9-3,4.6-5.9L115.6,90z M113.2,93.1l-58.6,7.2l0.3,2.5l58.6-7.2L113.2,93.1z M54.6,100.3
	c-1.5,0.2-2.9-0.9-3.1-2.4l-2.5,0.3c0.4,2.9,3,4.9,5.9,4.6L54.6,100.3z M51.5,97.9l-9-73.4l-2.5,0.3l9,73.4L51.5,97.9z M42.5,24.5
	c-0.1-0.4,0.2-0.8,0.7-0.8l-0.3-2.5c-1.8,0.2-3,1.8-2.8,3.6L42.5,24.5z M43.2,23.6C43.2,23.6,43.2,23.6,43.2,23.6l-0.3-2.5
	c0,0,0,0,0,0L43.2,23.6z M43.2,23.6l4.9-0.5l-0.3-2.5l-4.9,0.5L43.2,23.6z M52,22.7l4.6-0.5l-0.3-2.5l-4.6,0.5L52,22.7z"/>
<path class="st3" d="M104.1,19.5l8.4,61.5l0.8,6.2c0.2,2-1.1,3.8-3.1,4l-52.4,6.4c-2,0.2-3.8-1.2-4-3.2l-8.1-66.4
	c-0.1-1.1,0.6-2.1,1.7-2.2l6.5-0.8"/>
<path class="st4" d="M63.7,2.5h45.6c0.7,0,1.4,0.3,1.9,0.8l13.4,13.4c0.5,0.5,0.8,1.2,0.8,1.9v62.6c0,1.5-1.2,2.8-2.8,2.8h-59
	c-1.5,0-2.8-1.2-2.8-2.8v-76C60.9,3.7,62.2,2.5,63.7,2.5z"/>
<path class="st5" d="M109.7,3.6v11.6c0,1.7,1.3,3,3,3h7.9"/>
<path class="st6" d="M71,69.2h26 M71,18.2h26H71z M71,30.2h43H71z M71,43.2h43H71z M71,56.2h43H71z"/>
</svg>
