<svg xmlns="http://www.w3.org/2000/svg" style="display: none;">
    <symbol id="user-alien" viewBox="0 0 448 512">
        <path d="M206.7 378.1C211.8 382 217.9 383.1 224 383.1c6.08 0 12.16-1.957 17.27-5.873C282.6 346.3 384 259.6 384 173.6C384 65.83 312.3 0 224 0C135.6 0 64 65.83 64 173.6C64 259.6 165.4 346.3 206.7 378.1zM224 32c76.56 0 128 56.92 128 141.6c0 71.63-95.21 151.9-128 177.4c-32.88-25.57-128-105.8-128-177.4C96 88.92 147.4 32 224 32zM192 224c6.703 0 12.94-4.234 15.17-10.94c2.797-8.391-1.734-17.45-10.11-20.23l-48-16C140.6 174 131.6 178.5 128.8 186.9s1.734 17.45 10.11 20.23l48 16C188.6 223.7 190.3 224 192 224zM256 224c1.672 0 3.375-.2656 5.062-.8281l48-16c8.375-2.781 12.91-11.84 10.11-20.23S307.4 174 298.9 176.8l-48 16c-8.375 2.781-12.91 11.84-10.11 20.23C243.1 219.8 249.3 224 256 224zM320 352c-8.844 0-16 7.156-16 16S311.2 384 320 384c52.94 0 96 43.06 96 96H32c0-52.94 43.06-96 96-96c8.844 0 16-7.156 16-16S136.8 352 128 352c-70.58 0-128 57.39-128 127.1C0 497.6 14.36 512 32 512h384c17.64 0 32-14.39 32-32.03C448 409.4 390.6 352 320 352z"></path>
    </symbol>
    <symbol id="arrow-up-right" viewBox="0 0 320 512">
        <path d="M320 111.9v223.3c0 8.844-7.156 16-16 16s-16-7.156-16-16V150.6l-260.7 260.7C24.19 414.4 20.09 416 16 416s-8.188-1.562-11.31-4.688c-6.25-6.25-6.25-16.38 0-22.62l260.9-260.9l-185.6-.5547C71.11 127.2 63.97 120 64 111.2c.0313-8.844 7.188-15.97 16-15.97l224 .6562C312.9 95.94 320 103.1 320 111.9z"></path>
    </symbol>
    <symbol id="arrow-down-right" viewBox="0 0 320 512">
        <path d="M320 176v223.3c0 8.812-7.141 15.97-15.95 16l-224 .6562C71.23 416 64.03 408.9 64 400c-.0313-8.812 7.109-16 15.95-16.03l185.6-.5547L4.688 122.6c-6.25-6.25-6.25-16.38 0-22.62s16.38-6.25 22.62 0L288 360.6V176C288 167.2 295.2 160 304 160S320 167.2 320 176z"></path>
    </symbol>
    <symbol id="user-xmark" viewBox="0 0 640 512">
        <path d="M224 256c70.7 0 128-57.31 128-128S294.7 0 224 0C153.3 0 96 57.31 96 128S153.3 256 224 256zM224 32c52.94 0 96 43.06 96 96c0 52.93-43.06 96-96 96S128 180.9 128 128C128 75.06 171.1 32 224 32zM274.7 304H173.3C77.61 304 0 381.6 0 477.3C0 496.5 15.52 512 34.66 512h378.7C432.5 512 448 496.5 448 477.3C448 381.6 370.4 304 274.7 304zM413.3 480H34.66C33.2 480 32 478.8 32 477.3C32 399.4 95.4 336 173.3 336H274.7C352.6 336 416 399.4 416 477.3C416 478.8 414.8 480 413.3 480zM566.6 224l52.69-52.69c6.25-6.25 6.25-16.38 0-22.62s-16.38-6.25-22.62 0L544 201.4l-52.69-52.69c-6.25-6.25-16.38-6.25-22.62 0s-6.25 16.38 0 22.62L521.4 224l-52.69 52.69c-6.25 6.25-6.25 16.38 0 22.62c6.246 6.246 16.37 6.254 22.62 0L544 246.6l52.69 52.69c6.246 6.246 16.37 6.254 22.62 0c6.25-6.25 6.25-16.38 0-22.62L566.6 224z"></path>
    </symbol>
    <symbol id="angle-left" viewBox="0 0 256 512">
        <path d="M203.9 405.3c5.877 6.594 5.361 16.69-1.188 22.62c-6.562 5.906-16.69 5.375-22.59-1.188L36.1 266.7c-5.469-6.125-5.469-15.31 0-21.44l144-159.1c5.906-6.562 16.03-7.094 22.59-1.188c6.918 6.271 6.783 16.39 1.188 22.62L69.53 256L203.9 405.3z"></path>
    </symbol>
    <symbol id="angle-right" viewBox="0 0 256 512">
        <path d="M219.9 266.7L75.89 426.7c-5.906 6.562-16.03 7.094-22.59 1.188c-6.918-6.271-6.783-16.39-1.188-22.62L186.5 256L52.11 106.7C46.23 100.1 46.75 90.04 53.29 84.1C59.86 78.2 69.98 78.73 75.89 85.29l144 159.1C225.4 251.4 225.4 260.6 219.9 266.7z"></path>
    </symbol>
    <symbol id="angle-down" viewBox="0 0 384 512">
        <path d="M362.7 203.9l-159.1 144c-6.125 5.469-15.31 5.469-21.44 0L21.29 203.9C14.73 197.1 14.2 187.9 20.1 181.3C26.38 174.4 36.5 174.5 42.73 180.1L192 314.5l149.3-134.4c6.594-5.877 16.69-5.361 22.62 1.188C369.8 187.9 369.3 197.1 362.7 203.9z"></path>
    </symbol>
    <symbol id="angle-up" viewBox="0 0 384 512">
        <path d="M363.9 330.7c-6.271 6.918-16.39 6.783-22.62 1.188L192 197.5l-149.3 134.4c-6.594 5.877-16.69 5.361-22.62-1.188C14.2 324.1 14.73 314 21.29 308.1l159.1-144c6.125-5.469 15.31-5.469 21.44 0l159.1 144C369.3 314 369.8 324.1 363.9 330.7z"></path>
    </symbol>
    <symbol id="person" viewBox="0 0 320 512">
        <path d="M103.1 56C103.1 25.07 129.1 0 159.1 0C190.9 0 216 25.07 216 56C216 86.93 190.9 112 159.1 112C129.1 112 103.1 86.93 103.1 56zM159.1 80C173.3 80 184 69.25 184 56C184 42.75 173.3 32 159.1 32C146.7 32 135.1 42.75 135.1 56C135.1 69.25 146.7 80 159.1 80zM127.1 352V496C127.1 504.8 120.8 512 111.1 512C103.2 512 95.1 504.8 95.1 496V202.1L46.11 295.5C41.95 303.3 32.25 306.3 24.46 302.1C16.67 297.9 13.72 288.3 17.89 280.5L76.73 170.3C90.64 144.3 117.8 128 147.3 128H172.7C202.2 128 229.4 144.3 243.3 170.3L302.1 280.5C306.3 288.3 303.3 297.9 295.5 302.1C287.7 306.3 278.1 303.3 273.9 295.5L224 202.2V496C224 504.8 216.8 512 208 512C199.2 512 192 504.8 192 496V352H127.1zM127.1 320H192V164C186 161.4 179.5 160 172.7 160H147.3C140.5 160 133.1 161.4 127.1 164V320z"></path>
    </symbol>
    <symbol id="plus" viewBox="0 0 448 512">
        <path d="M432 256C432 264.8 424.8 272 416 272h-176V448c0 8.844-7.156 16.01-16 16.01S208 456.8 208 448V272H32c-8.844 0-16-7.15-16-15.99C16 247.2 23.16 240 32 240h176V64c0-8.844 7.156-15.99 16-15.99S240 55.16 240 64v176H416C424.8 240 432 247.2 432 256z"></path>
    </symbol>
    <symbol id="right-from-bracket" viewBox="0 0 512 512">
        <path d="M176 448h-96C53.53 448 32 426.5 32 400v-288C32 85.53 53.53 64 80 64h96C184.8 64 192 56.84 192 48S184.8 32 176 32h-96C35.88 32 0 67.88 0 112v288C0 444.1 35.88 480 80 480h96C184.8 480 192 472.8 192 464S184.8 448 176 448zM502.6 233.4l-128-128c-9.156-9.156-22.91-11.91-34.88-6.938C327.8 103.4 320 115.1 320 128l.0918 63.1L176 192C149.5 192 128 213.5 128 240v32C128 298.5 149.5 320 176 320l144.1-.001L320 384c0 12.94 7.797 24.62 19.75 29.56c11.97 4.969 25.72 2.219 34.88-6.938l128-128C508.9 272.4 512 264.2 512 256S508.9 239.6 502.6 233.4zM352 384V288H176C167.2 288 160 280.8 160 272v-32C160 231.2 167.2 224 176 224H352l-.0039-96l128 128L352 384z"></path>
    </symbol>
    <symbol id="xmark" viewBox="0 0 320 512">
        <path d="M315.3 411.3c-6.253 6.253-16.37 6.253-22.63 0L160 278.6l-132.7 132.7c-6.253 6.253-16.37 6.253-22.63 0c-6.253-6.253-6.253-16.37 0-22.63L137.4 256L4.69 123.3c-6.253-6.253-6.253-16.37 0-22.63c6.253-6.253 16.37-6.253 22.63 0L160 233.4l132.7-132.7c6.253-6.253 16.37-6.253 22.63 0c6.253 6.253 6.253 16.37 0 22.63L182.6 256l132.7 132.7C321.6 394.9 321.6 405.1 315.3 411.3z"></path>
    </symbol>
    <symbol id="star" viewBox="0 0 576 512">
        <path d="M287.9 435.9L150.1 509.1C142.9 513.4 133.1 512.7 125.6 507.4C118.2 502.1 114.5 492.9 115.1 483.9L142.2 328.4L31.11 218.2C24.65 211.9 22.36 202.4 25.2 193.7C28.03 185.1 35.5 178.8 44.49 177.5L197.7 154.8L266.3 13.52C270.4 5.249 278.7 0 287.9 0C297.1 0 305.5 5.25 309.5 13.52L378.1 154.8L531.4 177.5C540.4 178.8 547.8 185.1 550.7 193.7C553.5 202.4 551.2 211.9 544.8 218.2L433.6 328.4L459.9 483.9C461.4 492.9 457.7 502.1 450.2 507.4C442.8 512.7 432.1 513.4 424.9 509.1L287.9 435.9zM226.5 168.8C221.9 178.3 212.9 184.9 202.4 186.5L64.99 206.8L164.8 305.6C172.1 312.9 175.5 323.4 173.8 333.7L150.2 473.2L272.8 407.7C282.3 402.6 293.6 402.6 303 407.7L425.6 473.2L402.1 333.7C400.3 323.4 403.7 312.9 411.1 305.6L510.9 206.8L373.4 186.5C362.1 184.9 353.1 178.3 349.3 168.8L287.9 42.32L226.5 168.8z"></path>
    </symbol>
    <symbol id="star-fill" viewBox="0 0 576 512">
        <path fill="rgba(26,92,255,0.6)" d="M316.9 18C311.6 7 300.4 0 288.1 0s-23.4 7-28.8 18L195 150.3 51.4 171.5c-12 1.8-22 10.2-25.7 21.7s-.7 24.2 7.9 32.7L137.8 329 113.2 474.7c-2 12 3 24.2 12.9 31.3s23 8 33.8 2.3l128.3-68.5 128.3 68.5c10.8 5.7 23.9 4.9 33.8-2.3s14.9-19.3 12.9-31.3L438.5 329 542.7 225.9c8.6-8.5 11.7-21.2 7.9-32.7s-13.7-19.9-25.7-21.7L381.2 150.3 316.9 18z"></path>
    </symbol>
    <symbol id="calendar-arrow-down" viewBox="0 0 448 512">
        <path d="M240 377.4L292.7 324.7C298.9 318.4 309.1 318.4 315.3 324.7C321.6 330.9 321.6 341.1 315.3 347.3L235.3 427.3C229.1 433.6 218.9 433.6 212.7 427.3L132.7 347.3C126.4 341.1 126.4 330.9 132.7 324.7C138.9 318.4 149.1 318.4 155.3 324.7L208 377.4V256C208 247.2 215.2 240 224 240C232.8 240 240 247.2 240 256L240 377.4zM128 64H320V16C320 7.164 327.2 0 336 0C344.8 0 352 7.164 352 16V64H384C419.3 64 448 92.65 448 128V448C448 483.3 419.3 512 384 512H64C28.65 512 0 483.3 0 448V128C0 92.65 28.65 64 64 64H96V16C96 7.164 103.2 0 112 0C120.8 0 128 7.164 128 16V64zM32 448C32 465.7 46.33 480 64 480H384C401.7 480 416 465.7 416 448V192H32V448zM32 128V160H416V128C416 110.3 401.7 96 384 96H64C46.33 96 32 110.3 32 128z"></path>
    </symbol>
    <symbol id="calendar-arrow-up" viewBox="0 0 448 512">
        <path d="M208 294.6L155.3 347.3C149.1 353.6 138.9 353.6 132.7 347.3C126.4 341.1 126.4 330.9 132.7 324.7L212.7 244.7C218.9 238.4 229.1 238.4 235.3 244.7L315.3 324.7C321.6 330.9 321.6 341.1 315.3 347.3C309.1 353.6 298.9 353.6 292.7 347.3L240 294.6V416C240 424.8 232.8 432 223.1 432C215.2 432 207.1 424.8 207.1 416L208 294.6zM128 64H320V16C320 7.164 327.2 0 336 0C344.8 0 352 7.164 352 16V64H384C419.3 64 448 92.65 448 128V448C448 483.3 419.3 512 384 512H64C28.65 512 0 483.3 0 448V128C0 92.65 28.65 64 64 64H96V16C96 7.164 103.2 0 112 0C120.8 0 128 7.164 128 16V64zM32 448C32 465.7 46.33 480 64 480H384C401.7 480 416 465.7 416 448V192H32V448zM32 128V160H416V128C416 110.3 401.7 96 384 96H64C46.33 96 32 110.3 32 128z"></path>
    </symbol>
    <symbol id="split" viewBox="0 0 512 512">
        <path d="M507.3 372.7c6.25 6.25 6.25 16.38 0 22.62l-80 80C424.2 478.4 420.1 480 416 480s-8.188-1.562-11.31-4.688c-6.25-6.25-6.25-16.38 0-22.62L457.4 400h-124.1c-12.62 0-25-5.125-33.94-14.06L185.4 272H24c-8.844 0-16-7.156-16-16s7.156-16 16-16h161.4l113.9-113.9C308.3 117.1 320.6 112 333.3 112h124.1l-52.69-52.69c-6.25-6.25-6.25-16.38 0-22.62s16.38-6.25 22.62 0l80 80c6.25 6.25 6.25 16.38 0 22.62l-80 80C424.2 222.4 420.1 224 416 224s-8.188-1.562-11.31-4.688c-6.25-6.25-6.25-16.38 0-22.62L457.4 144h-124.1c-4.219 0-8.344 1.719-11.31 4.688L214.6 256l107.3 107.3C324.9 366.3 329 368 333.3 368h124.1l-52.69-52.69c-6.25-6.25-6.25-16.38 0-22.62s16.38-6.25 22.62 0L507.3 372.7z"></path>
    </symbol>
    <symbol id="merge" viewBox="0 0 512 512">
        <path d="M0 80C0 71.16 7.164 64 16 64H143.7C159.1 64 173.5 71.35 182.5 83.77L291.4 233.4C294.4 237.6 299.2 239.1 304.3 239.1H457.4L404.7 187.3C398.4 181.1 398.4 170.9 404.7 164.7C410.9 158.4 421.1 158.4 427.3 164.7L507.3 244.7C513.6 250.9 513.6 261.1 507.3 267.3L427.3 347.3C421.1 353.6 410.9 353.6 404.7 347.3C398.4 341.1 398.4 330.9 404.7 324.7L457.4 271.1H304.3C299.2 271.1 294.4 274.4 291.4 278.6L182.5 428.2C173.5 440.6 159.1 448 143.7 448H16C7.164 448 0 440.8 0 432C0 423.2 7.164 416 16 416H143.7C148.8 416 153.6 413.5 156.6 409.4L265.5 259.8C266.4 258.5 267.4 257.2 268.5 255.1C267.4 254.8 266.4 253.5 265.5 252.2L156.6 102.6C153.6 98.45 148.8 95.1 143.7 95.1H16C7.164 95.1 0 88.84 0 79.1V80z"></path>
    </symbol>
    <symbol id="clock-rotate-left" viewBox="0 0 512 512">
        <path d="M256 0C397.4 0 512 114.6 512 256C512 397.4 397.4 512 256 512C172.2 512 97.87 471.8 51.19 409.6C45.88 402.5 47.31 392.5 54.37 387.2C61.44 381.9 71.47 383.3 76.78 390.4C117.7 444.8 182.7 480 256 480C379.7 480 480 379.7 480 256C480 132.3 379.7 32 256 32C166.7 32 89.51 84.3 53.55 160H144C152.8 160 160 167.2 160 176C160 184.8 152.8 192 144 192H16C7.164 192 0 184.8 0 176V48C0 39.16 7.164 32 16 32C24.84 32 32 39.16 32 48V131.1C75.66 53.29 159.6 0 256 0zM256 128C264.8 128 272 135.2 272 144V249.4L347.3 324.7C353.6 330.9 353.6 341.1 347.3 347.3C341.1 353.6 330.9 353.6 324.7 347.3L244.7 267.3C241.7 264.3 239.1 260.2 239.1 256V144C239.1 135.2 247.2 128 255.1 128H256z"></path>
    </symbol>
    <symbol id="folder" viewBox="0 0 512 512">
        <path d="M447.1 96H272L226.7 50.75C214.7 38.74 198.5 32 181.5 32H63.1c-35.35 0-64 28.65-64 64v320c0 35.35 28.65 64 64 64h384c35.35 0 64-28.65 64-64V160C511.1 124.7 483.3 96 447.1 96zM480 416c0 17.64-14.36 32-32 32H64c-17.64 0-32-14.36-32-32V96c0-17.64 14.36-32 32-32h117.5c8.549 0 16.58 3.328 22.63 9.375L258.7 128H448c17.64 0 32 14.36 32 32V416z"></path>
    </symbol>
    <symbol id="gear" viewBox="0 0 512 512">
        <path d="M168 255.1C168 207.4 207.4 167.1 256 167.1C304.6 167.1 344 207.4 344 255.1C344 304.6 304.6 344 256 344C207.4 344 168 304.6 168 255.1zM256 199.1C225.1 199.1 200 225.1 200 255.1C200 286.9 225.1 311.1 256 311.1C286.9 311.1 312 286.9 312 255.1C312 225.1 286.9 199.1 256 199.1zM65.67 230.6L25.34 193.8C14.22 183.7 11.66 167.2 19.18 154.2L49.42 101.8C56.94 88.78 72.51 82.75 86.84 87.32L138.8 103.9C152.2 93.56 167 84.96 182.8 78.43L194.5 25.16C197.7 10.47 210.7 0 225.8 0H286.2C301.3 0 314.3 10.47 317.5 25.16L329.2 78.43C344.1 84.96 359.8 93.56 373.2 103.9L425.2 87.32C439.5 82.75 455.1 88.78 462.6 101.8L492.8 154.2C500.3 167.2 497.8 183.7 486.7 193.8L446.3 230.6C447.4 238.9 448 247.4 448 255.1C448 264.6 447.4 273.1 446.3 281.4L486.7 318.2C497.8 328.3 500.3 344.8 492.8 357.8L462.6 410.2C455.1 423.2 439.5 429.2 425.2 424.7L373.2 408.1C359.8 418.4 344.1 427 329.2 433.6L317.5 486.8C314.3 501.5 301.3 512 286.2 512H225.8C210.7 512 197.7 501.5 194.5 486.8L182.8 433.6C167 427 152.2 418.4 138.8 408.1L86.84 424.7C72.51 429.2 56.94 423.2 49.42 410.2L19.18 357.8C11.66 344.8 14.22 328.3 25.34 318.2L65.67 281.4C64.57 273.1 64 264.6 64 255.1C64 247.4 64.57 238.9 65.67 230.6V230.6zM158.4 129.2L145.1 139.5L77.13 117.8L46.89 170.2L99.58 218.2L97.39 234.8C96.47 241.7 96 248.8 96 255.1C96 263.2 96.47 270.3 97.39 277.2L99.58 293.8L46.89 341.8L77.13 394.2L145.1 372.5L158.4 382.8C169.5 391.4 181.9 398.6 195 403.1L210.5 410.4L225.8 480H286.2L301.5 410.4L316.1 403.1C330.1 398.6 342.5 391.4 353.6 382.8L366.9 372.5L434.9 394.2L465.1 341.8L412.4 293.8L414.6 277.2C415.5 270.3 416 263.2 416 256C416 248.8 415.5 241.7 414.6 234.8L412.4 218.2L465.1 170.2L434.9 117.8L366.9 139.5L353.6 129.2C342.5 120.6 330.1 113.4 316.1 108L301.5 101.6L286.2 32H225.8L210.5 101.6L195 108C181.9 113.4 169.5 120.6 158.4 129.2H158.4z"></path>
    </symbol>
    <symbol id="weight-hanging" viewBox="0 0 512 512">
        <path d="M509.9 431.4l-68.43-267.7C436.2 142.7 417.9 128 397 128h-77.38c10.15-13.41 16.38-29.92 16.38-48c0-44.13-35.89-80-80.01-80S175.1 35.88 175.1 80c0 18.08 6.23 34.59 16.38 48H114.1C94.1 128 75.8 142.7 70.53 163.6l-68.45 267.8c-5.08 19.81-.75 41.13 11.6 57.03C25.29 503.4 42.53 512 60.95 512h390.1c18.42 0 35.66-8.594 47.27-23.59C510.7 472.5 514.1 451.2 509.9 431.4zM256 32c26.47 0 48.01 21.53 48.01 48S282.5 128 256 128S207.1 106.5 207.1 80S229.5 32 256 32zM473 468.8C467.4 476 459.6 480 451 480H60.95c-8.578 0-16.39-3.969-21.99-11.19c-6.33-8.156-8.518-19.16-5.877-29.47L101.6 171.5C103.3 164.7 108.8 160 114.1 160h282c6.205 0 11.74 4.719 13.46 11.56l68.45 267.8C481.6 449.6 479.4 460.7 473 468.8z"></path>
    </symbol>
    <symbol id="pen-to-square" viewBox="0 0 512 512">
        <path d="M386.7 22.63C411.7-2.365 452.3-2.365 477.3 22.63L489.4 34.74C514.4 59.74 514.4 100.3 489.4 125.3L269 345.6C260.6 354.1 249.9 359.1 238.2 362.7L147.6 383.6C142.2 384.8 136.6 383.2 132.7 379.3C128.8 375.4 127.2 369.8 128.4 364.4L149.3 273.8C152 262.1 157.9 251.4 166.4 242.1L386.7 22.63zM454.6 45.26C442.1 32.76 421.9 32.76 409.4 45.26L382.6 72L440 129.4L466.7 102.6C479.2 90.13 479.2 69.87 466.7 57.37L454.6 45.26zM180.5 281L165.3 346.7L230.1 331.5C236.8 330.2 242.2 327.2 246.4 322.1L417.4 152L360 94.63L189 265.6C184.8 269.8 181.8 275.2 180.5 281V281zM208 64C216.8 64 224 71.16 224 80C224 88.84 216.8 96 208 96H80C53.49 96 32 117.5 32 144V432C32 458.5 53.49 480 80 480H368C394.5 480 416 458.5 416 432V304C416 295.2 423.2 288 432 288C440.8 288 448 295.2 448 304V432C448 476.2 412.2 512 368 512H80C35.82 512 0 476.2 0 432V144C0 99.82 35.82 64 80 64H208z"></path>
    </symbol>
    <symbol id="circle-question" viewBox="0 0 512 512">
        <path d="M256 0C114.6 0 0 114.6 0 256s114.6 256 256 256s256-114.6 256-256S397.4 0 256 0zM256 480c-123.5 0-224-100.5-224-224s100.5-224 224-224s224 100.5 224 224S379.5 480 256 480zM240 344c-13.25 0-24 10.75-24 24s10.75 24 24 24s24-10.75 24-24S253.3 344 240 344zM285.6 128H226.4C189.8 128 160 157.8 160 194.4V204c0 8.844 7.156 16 16 16S192 212.8 192 204V194.4C192 175.4 207.4 160 226.4 160h59.25C304.6 160 320 175.4 320 194.4c0 12.48-6.781 24-17.06 29.72L242.5 254.3C231.1 260.7 224 272.7 224 285.8V304C224 312.8 231.2 320 240 320S256 312.8 256 304V285.8c0-1.453 .7813-2.797 1.438-3.172l60.41-30.22C338.9 240.7 352 218.5 352 194.4C352 157.8 322.2 128 285.6 128z"></path>
    </symbol>
    <symbol id="weights" viewBox="0 0 48 48" >
        <path fill-rule="evenodd" clip-rule="evenodd" d="M11.7839 40L36.216 40C37.2775 40 38.1541 39.1708 38.213 38.1109L39.7685 10.1109C39.8322 8.96454 38.9198 8 37.7716 8L10.2284 8C9.08021 8 8.16778 8.96454 8.23146 10.1109L9.78702 38.1109C9.8459 39.1708 10.7225 40 11.7839 40ZM36.216 42C38.339 42 40.0921 40.3415 40.2099 38.2219L41.7654 10.2219C41.8928 7.92908 40.0679 6 37.7716 6L10.2284 6C7.93204 6 6.10717 7.92907 6.23455 10.2219L7.7901 38.2219C7.90786 40.3415 9.661 42 11.7839 42L36.216 42Z" fill="currentColor"/>
        <path fill-rule="evenodd" clip-rule="evenodd" d="M34.1955 17.4057C33.1476 16.2921 31.9212 15.3544 30.5625 14.6334C28.611 13.5977 26.442 13.0387 24.2329 13.0019C22.0239 12.9652 19.8375 13.4518 17.8526 14.4219C16.4707 15.0973 15.2137 15.9937 14.1293 17.0718L18.7665 20.5603C18.7816 20.5652 18.8205 20.5727 18.8976 20.5657C19.0544 20.5516 19.2744 20.4796 19.4875 20.3354C19.799 20.1244 20.1259 19.935 20.4658 19.7688C21.607 19.2111 22.8639 18.9314 24.1339 18.9525C25.4039 18.9736 26.6509 19.295 27.7728 19.8904C28.1071 20.0678 28.4274 20.268 28.7318 20.4892C28.9399 20.6405 29.1574 20.7198 29.3137 20.739C29.3905 20.7485 29.4297 20.7423 29.4448 20.7379L34.1955 17.4057ZM29.4525 20.7347C29.4527 20.7349 29.4506 20.7362 29.4455 20.7377C29.4498 20.7352 29.4523 20.7344 29.4525 20.7347ZM18.759 20.5567C18.7592 20.5565 18.7617 20.5574 18.766 20.5601C18.7609 20.5583 18.7587 20.557 18.759 20.5567ZM35.8512 16.2506C36.5933 17.0688 36.3659 18.3263 35.4616 18.9606L30.5893 22.3781C29.685 23.0124 28.4495 22.7564 27.556 22.1071C27.3273 21.9408 27.0865 21.7904 26.8353 21.6571C25.9921 21.2096 25.055 20.9681 24.1006 20.9522C23.1462 20.9363 22.2016 21.1466 21.344 21.5657C21.0885 21.6906 20.8429 21.8329 20.6088 21.9915C19.6942 22.6108 18.4508 22.8255 17.5682 22.1615L12.8123 18.5837C11.9296 17.9197 11.7441 16.6553 12.513 15.8623C13.7981 14.5369 15.3066 13.4401 16.9744 12.625C19.2429 11.5163 21.7416 10.9602 24.2662 11.0022C26.7908 11.0442 29.2697 11.6831 31.5 12.8667C33.1397 13.7368 34.6109 14.8832 35.8512 16.2506Z" fill="currentColor"/>
        <path d="M27.1821 15.5719C27.5446 15.1552 28.1762 15.1112 28.5929 15.4736C29.0097 15.8361 29.0537 16.4677 28.6912 16.8844L25.9448 20.0423C25.5824 20.459 24.9507 20.503 24.534 20.1406C24.1173 19.7781 24.0733 19.1465 24.4357 18.7298L27.1821 15.5719Z" fill="currentColor"/>
    </symbol>
    <symbol id="github" viewBox="0 0 496 512">
        <path d="M165.9 397.4c0 2-2.3 3.6-5.2 3.6-3.3.3-5.6-1.3-5.6-3.6 0-2 2.3-3.6 5.2-3.6 3-.3 5.6 1.3 5.6 3.6zm-31.1-4.5c-.7 2 1.3 4.3 4.3 4.9 2.6 1 5.6 0 6.2-2s-1.3-4.3-4.3-5.2c-2.6-.7-5.5.3-6.2 2.3zm44.2-1.7c-2.9.7-4.9 2.6-4.6 4.9.3 2 2.9 3.3 5.9 2.6 2.9-.7 4.9-2.6 4.6-4.6-.3-1.9-3-3.2-5.9-2.9zM244.8 8C106.1 8 0 113.3 0 252c0 110.9 69.8 205.8 169.5 239.2 12.8 2.3 17.3-5.6 17.3-12.1 0-6.2-.3-40.4-.3-61.4 0 0-70 15-84.7-29.8 0 0-11.4-29.1-27.8-36.6 0 0-22.9-15.7 1.6-15.4 0 0 24.9 2 38.6 25.8 21.9 38.6 58.6 27.5 72.9 20.9 2.3-16 8.8-27.1 16-33.7-55.9-6.2-112.3-14.3-112.3-110.5 0-27.5 7.6-41.3 23.6-58.9-2.6-6.5-11.1-33.3 2.6-67.9 20.9-6.5 69 27 69 27 20-5.6 41.5-8.5 62.8-8.5s42.8 2.9 62.8 8.5c0 0 48.1-33.6 69-27 13.7 34.7 5.2 61.4 2.6 67.9 16 17.7 25.8 31.5 25.8 58.9 0 96.5-58.9 104.2-114.8 110.5 9.2 7.9 17 22.9 17 46.4 0 33.7-.3 75.4-.3 83.6 0 6.5 4.6 14.4 17.3 12.1C428.2 457.8 496 362.9 496 252 496 113.3 383.5 8 244.8 8zM97.2 352.9c-1.3 1-1 3.3.7 5.2 1.6 1.6 3.9 2.3 5.2 1 1.3-1 1-3.3-.7-5.2-1.6-1.6-3.9-2.3-5.2-1zm-10.8-8.1c-.7 1.3.3 2.9 2.3 3.9 1.6 1 3.6.7 4.3-.7.7-1.3-.3-2.9-2.3-3.9-2-.6-3.6-.3-4.3.7zm32.4 35.6c-1.6 1.3-1 4.3 1.3 6.2 2.3 2.3 5.2 2.6 6.5 1 1.3-1.3.7-4.3-1.3-6.2-2.2-2.3-5.2-2.6-6.5-1zm-11.4-14.7c-1.6 1-1.6 3.6 0 5.9 1.6 2.3 4.3 3.3 5.6 2.3 1.6-1.3 1.6-3.9 0-6.2-1.4-2.3-4-3.3-5.6-2z"/>
    </symbol>
    <symbol id="grip-dots-vertical" viewBox="0 0 256 512">
        <path d="M96 96C96 122.5 74.51 144 48 144C21.49 144 0 122.5 0 96C0 69.49 21.49 48 48 48C74.51 48 96 69.49 96 96zM48 80C39.16 80 32 87.16 32 96C32 104.8 39.16 112 48 112C56.84 112 64 104.8 64 96C64 87.16 56.84 80 48 80zM96 256C96 282.5 74.51 304 48 304C21.49 304 0 282.5 0 256C0 229.5 21.49 208 48 208C74.51 208 96 229.5 96 256zM48 240C39.16 240 32 247.2 32 256C32 264.8 39.16 272 48 272C56.84 272 64 264.8 64 256C64 247.2 56.84 240 48 240zM0 416C0 389.5 21.49 368 48 368C74.51 368 96 389.5 96 416C96 442.5 74.51 464 48 464C21.49 464 0 442.5 0 416zM48 432C56.84 432 64 424.8 64 416C64 407.2 56.84 400 48 400C39.16 400 32 407.2 32 416C32 424.8 39.16 432 48 432zM256 96C256 122.5 234.5 144 208 144C181.5 144 160 122.5 160 96C160 69.49 181.5 48 208 48C234.5 48 256 69.49 256 96zM208 80C199.2 80 192 87.16 192 96C192 104.8 199.2 112 208 112C216.8 112 224 104.8 224 96C224 87.16 216.8 80 208 80zM160 256C160 229.5 181.5 208 208 208C234.5 208 256 229.5 256 256C256 282.5 234.5 304 208 304C181.5 304 160 282.5 160 256zM208 272C216.8 272 224 264.8 224 256C224 247.2 216.8 240 208 240C199.2 240 192 247.2 192 256C192 264.8 199.2 272 208 272zM256 416C256 442.5 234.5 464 208 464C181.5 464 160 442.5 160 416C160 389.5 181.5 368 208 368C234.5 368 256 389.5 256 416zM208 400C199.2 400 192 407.2 192 416C192 424.8 199.2 432 208 432C216.8 432 224 424.8 224 416C224 407.2 216.8 400 208 400z"></path>
    </symbol>
    <symbol id="bars" viewBox="0 0 448 512">
        <path d="M0 80C0 71.16 7.164 64 16 64H432C440.8 64 448 71.16 448 80C448 88.84 440.8 96 432 96H16C7.164 96 0 88.84 0 80zM0 240C0 231.2 7.164 224 16 224H432C440.8 224 448 231.2 448 240C448 248.8 440.8 256 432 256H16C7.164 256 0 248.8 0 240zM432 416H16C7.164 416 0 408.8 0 400C0 391.2 7.164 384 16 384H432C440.8 384 448 391.2 448 400C448 408.8 440.8 416 432 416z"></path>
    </symbol>
    <symbol id="arrows-repeat" viewBox="0 0 512 512">
        <path d="M176 112h211.8l-62.05 51.72c-6.781 5.656-7.703 15.75-2.047 22.53C326.9 190 331.4 192 336 192c3.609 0 7.234-1.219 10.23-3.719l96-80C445.9 105.3 448 100.7 448 95.1s-2.109-9.248-5.75-12.28l-96-80c-6.797-5.688-16.89-4.719-22.55 2.031c-5.656 6.781-4.734 16.88 2.047 22.53L387.8 80H176C78.95 80 0 158.1 0 255.1C0 264.8 7.156 272 16 272S32.01 264.8 32.01 256C32.01 176.6 96.59 112 176 112zM496 240c-8.844 0-16.01 7.156-16.01 16c0 79.41-64.59 144-143.1 144H124.2l62.05-51.72c6.781-5.656 7.703-15.75 2.047-22.53C182.7 319 172.6 318.1 165.8 323.7l-96 80C66.11 406.8 64 411.2 64 415.1s2.109 9.25 5.75 12.28l96 80C168.8 510.8 172.4 512 175.1 512c4.594 0 9.141-1.969 12.31-5.75c5.656-6.781 4.734-16.88-2.047-22.53L124.2 432H336c97.05 0 176-78.97 176-176C512 247.2 504.8 240 496 240z"></path>
    </symbol>
    <symbol id="bullseye-arrow" viewBox="0 0 512 512">
        <path d="M300.9 32.58C299.8 33.64 298.6 34.73 297.5 35.84C284.1 33.32 270.2 32 256 32C132.3 32 32 132.3 32 256C32 379.7 132.3 480 256 480C379.7 480 480 379.7 480 256C480 241.8 478.7 227.9 476.2 214.5C477.3 213.4 478.4 212.2 479.4 211.1L502.2 185.7C508.6 208 512 231.6 512 256C512 397.4 397.4 512 256 512C114.6 512 0 397.4 0 256C0 114.6 114.6 0 256 0C280.4 0 303.1 3.406 326.3 9.768L300.9 32.58zM275.5 105.2L279.7 130.2C272 128.8 264.1 127.1 255.1 127.1C185.3 127.1 127.1 185.3 127.1 255.1C127.1 326.7 185.3 384 255.1 384C326.7 384 384 326.7 384 255.1C384 247.9 383.2 239.1 381.8 232.3L406.8 236.5C409.5 236.9 412.2 237.2 414.9 237.4C415.6 243.5 416 249.7 416 255.1C416 344.4 344.4 416 256 416C167.6 416 96 344.4 96 255.1C96 167.6 167.6 95.1 256 95.1C262.3 95.1 268.5 96.36 274.6 97.07C274.8 99.78 275.1 102.5 275.5 105.2H275.5zM341.5 193.1L267.3 267.3C261.1 273.6 250.9 273.6 244.7 267.3C238.4 261.1 238.4 250.9 244.7 244.7L318.9 170.5L307.1 100.1C304.4 83.79 310.2 67.26 322.6 56.3L371.1 12.37C385.1 .7184 405.9 6.611 410.9 23.42L428.8 83.15L488.6 101.1C505.4 106.1 511.3 126.9 499.6 140L455.7 189.4C444.7 201.8 428.2 207.6 411.9 204.9L341.5 193.1zM369.3 165.3L417.2 173.3C422.6 174.2 428.1 172.3 431.8 168.2L467.4 128.1L420.6 114.1L369.3 165.3zM397.9 91.44L383.9 44.62L343.8 80.22C339.7 83.87 337.8 89.38 338.7 94.8L346.7 142.7L397.9 91.44z"></path>
    </symbol>
    <symbol id="triangle-exclamation" viewBox="0 0 512 512">
        <path d="M256 360c-13.25 0-23.1 10.74-23.1 24c0 13.25 10.75 24 23.1 24c13.25 0 23.1-10.75 23.1-24C280 370.7 269.3 360 256 360zM256 320c8.843 0 15.1-7.156 15.1-16V160c0-8.844-7.155-16-15.1-16S240 151.2 240 160v144C240 312.8 247.2 320 256 320zM504.3 397.3L304.5 59.38C294.4 42.27 276.2 32.03 256 32C235.8 32 217.7 42.22 207.5 59.36l-199.9 338c-10.05 16.97-10.2 37.34-.4218 54.5C17.29 469.5 35.55 480 56.1 480h399.9c20.51 0 38.75-10.53 48.81-28.17C514.6 434.7 514.4 414.3 504.3 397.3zM476.1 435.1C472.7 443.5 464.8 448 455.1 448H56.1c-8.906 0-16.78-4.484-21.08-12c-4.078-7.156-4.015-15.3 .1562-22.36L235.1 75.66C239.4 68.36 247.2 64 256 64c0 0-.0156 0 0 0c8.765 .0156 16.56 4.359 20.86 11.64l199.9 338C480.1 420.7 481.1 428.8 476.1 435.1z"></path>
    </symbol>
    <symbol id="arrows-rotate" viewBox="0 0 512 512">
        <path d="M464 32C455.2 32 448 39.16 448 48v129.3C416.2 99.72 340.6 48 256 48c-102 0-188.3 72.91-205.1 173.3C49.42 230.1 55.3 238.3 64.02 239.8C64.91 239.9 65.8 240 66.67 240c7.672 0 14.45-5.531 15.77-13.34C96.69 141.7 169.7 80 256 80c72.49 0 137.3 44.88 163.6 112H304C295.2 192 288 199.2 288 208S295.2 224 304 224h160C472.8 224 480 216.8 480 208v-160C480 39.16 472.8 32 464 32zM447.1 272.2c-8.766-1.562-16.97 4.406-18.42 13.12C415.3 370.3 342.3 432 255.1 432c-72.49 0-137.3-44.88-163.6-112H208C216.8 320 224 312.8 224 304S216.8 288 208 288h-160C39.16 288 32 295.2 32 304v160C32 472.8 39.16 480 48 480S64 472.8 64 464v-129.3C95.84 412.3 171.4 464 256 464c101.1 0 188.3-72.91 205.1-173.3C462.6 281.9 456.7 273.7 447.1 272.2z"></path>
    </symbol>
    <symbol id="trash" viewBox="0 0 448 512">
        <path d="M432 64C440.8 64 448 71.16 448 80C448 88.84 440.8 96 432 96H413.7L388.2 452.6C385.9 486.1 357.1 512 324.4 512H123.6C90.01 512 62.15 486.1 59.75 452.6L34.29 96H16C7.164 96 0 88.84 0 80C0 71.16 7.164 64 16 64H111.1L137 22.56C145.8 8.526 161.2 0 177.7 0H270.3C286.8 0 302.2 8.526 310.1 22.56L336.9 64H432zM177.7 32C172.2 32 167.1 34.84 164.2 39.52L148.9 64H299.1L283.8 39.52C280.9 34.84 275.8 32 270.3 32H177.7zM381.6 96H66.37L91.67 450.3C92.87 467 106.8 480 123.6 480H324.4C341.2 480 355.1 467 356.3 450.3L381.6 96z"></path>
    </symbol>
    <symbol id="file-signature" viewBox="0 0 576 512">
        <path d="M560.9 136L536 111.1c-20.25-20.25-53-20.25-73.25 0L303.5 269.8C273.4 299.8 256.1 341.3 256 383.8c-3.875-.25-7.5-2.387-9.375-6.262c-11.88-23.88-46.25-30.38-66-14.12l-13.88-41.63C163.5 311.9 154.4 305.3 144 305.3s-19.5 6.625-22.75 16.5L103 376.4C101.5 381 97.25 384 92.38 384H80C71.13 384 64 391.1 64 400S71.13 416 80 416h12.4c18.62 0 35.1-11.88 40.98-29.5L144 354.6L160.8 405C165.4 418.6 184 419.9 190.3 407.1l7.749-15.38c4-8 15.69-8.5 20.19 .375C225.4 406.6 239.9 415.7 256 415.9L288 416c66.84 0 112.1-46.3 114.1-47.5l158.8-159.3C570.6 199.5 576 186.4 576 172.6C576 158.8 570.6 145.8 560.9 136zM379.5 346C355.3 370.3 322.4 383.9 288 383.9c0-34.38 13.75-67.32 37.1-91.44l120.6-119.9l52.75 52.75L379.5 346zM538.3 186.6L517 207.8L464.3 155l21.12-21.25c7.75-7.625 20.25-7.749 28 0l24.88 24.88C545.9 166.4 545.9 178.9 538.3 186.6zM364.4 448c-6.629 0-13.1 3.795-15.2 10.1C344.1 470.8 333 480 318.1 480h-255.2c-17.62 0-31.89-14.33-31.89-32V64c0-17.67 14.28-32 31.89-32h127.6v112c0 26.51 21.42 48 47.84 48h64.07c8.652 0 15.66-7.037 15.66-15.72V175.7C318.1 167 311.9 160 303.3 160H239.2C230.4 160 223.3 152.8 223.3 144V34.08c4.461 1.566 8.637 3.846 12.08 7.299l89.85 90.14c6.117 6.139 16.04 6.139 22.15 0L347.7 131.1c6.117-6.139 6.117-16.09 0-22.23L257.9 18.75C245.9 6.742 229.7 0 212.8 0H63.93C28.7 0 0 28.65 0 64l.0065 384c0 35.35 28.7 64 63.93 64h255c28.2 0 52.12-18.36 60.55-43.8C382.8 458.2 374.9 448 364.4 448z"></path>
    </symbol>
    <symbol id="folder-heart" viewBox="0 0 512 512">
        <path d="M448 96h-176L226.7 50.75C214.7 38.74 198.5 32 181.5 32H64C28.65 32 0 60.65 0 96v320c0 35.35 28.65 64 64 64h384c35.35 0 64-28.65 64-64V160C512 124.7 483.3 96 448 96zM480 416c0 17.64-14.36 32-32 32H64c-17.64 0-32-14.36-32-32V96c0-17.64 14.36-32 32-32h117.5c8.549 0 16.58 3.328 22.63 9.375L258.7 128H448c17.64 0 32 14.36 32 32V416zM255.9 219.7c-42.64-43-76.29-26.04-90.17-14.41c-27.51 23-28.89 64.13-4.252 89l84.79 85.63c5.502 5.5 13.92 5.5 19.42 0l84.87-85.63c24.64-24.88 23.14-66-4.377-89C332.3 193.6 298.4 176.7 255.9 219.7zM327.9 271.7l-72.03 72.63L184.1 271.7c-10.38-10.38-12.38-30 2-42c13.76-11.5 31.26-3.377 38.52 3.75l31.39 31.75l31.39-31.75c7.129-7.252 24.64-15.25 38.39-3.75C340.2 241.7 338.2 261.4 327.9 271.7z"></path>
    </symbol>
    <symbol id="check" viewBox="0 0 448 512">
        <path d="M443.3 100.7C449.6 106.9 449.6 117.1 443.3 123.3L171.3 395.3C165.1 401.6 154.9 401.6 148.7 395.3L4.686 251.3C-1.562 245.1-1.562 234.9 4.686 228.7C10.93 222.4 21.06 222.4 27.31 228.7L160 361.4L420.7 100.7C426.9 94.44 437.1 94.44 443.3 100.7H443.3z"></path>
    </symbol>
</svg>
